<?xml version="1.0" encoding="utf-8"?>
<svg version="1.1" xmlns="http://www.w3.org/2000/svg" xmlns:xlink="http://www.w3.org/1999/xlink" viewBox="0 0 32 32" xml:space="preserve">
<style>
.base {
    fill: #dc8a78;
}
.bulb {
    fill: #7287fd;
}
@media (prefers-color-scheme: dark) {
        .base {
            fill: #f5e0dc;
        }
        .bulb {
            fill: #b4befe;
        }
</style>
<path class="base" d="M21,24c0,0.552-0.447,1-1,1h-8c-0.553,0-1-0.448-1-1s0.447-1,1-1h8C20.553,23,21,23.448,21,24z"/>
<path class="base" d="M20,26h-8c-0.553,0-1,0.448-1,1s0.447,1,1,1h8c0.553,0,1-0.448,1-1S20.553,26,20,26z"/> <path class="base" d="M15,29v1c0,0.552,0.448,1,1,1s1-0.448,1-1v-1H15z"/>
<path class="bulb" d="M26,11c0,5-5,8-5,10c0,0.552-0.448,1-1,1h-8c-0.552,0-1-0.448-1-1c0-2-5-5-5-10C6,5.477,10.477,1,16,1S26,5.477,26,11z M17,4c0-0.552-0.447-1-1-1c-4.411,0-8,3.589-8,8c0,0.552,0.447,1,1,1s1-0.448,1-1c0-3.309,2.691-6,6-6C16.553,5,17,4.552,17,4z"/>
</svg>
